<svg xmlns="http://www.w3.org/2000/svg" version="1.1" xmlns:xlink="http://www.w3.org/1999/xlink" viewBox="0 0 700 700" style="overflow: hidden; display: block;" width="700" height="700"><defs></defs><g id="two-0" transform="matrix(1 0 0 1 0 0)" opacity="1"><path transform="matrix(1 0 0 1 350 350)" id="two-412" d="M 200.812263 28.222323 C 195.400891 70.980215 327.732248 49.140653 315.610474 90.499847 C 303.095917 133.199207 199.644094 40.183378 181.1361 80.646987 C 164.25696 117.54947 252.885947 129.945312 268.136313 167.550164 C 275.17022 184.894603 282.691578 213.665046 267.262593 224.259943 C 238.974942 243.684729 202.510695 198.303221 169.650919 188.416433 C 153.200062 183.46673 135.31458 181.780646 118.994247 176.416227 C 104.824299 171.758629 89.840091 150.468151 77.407666 158.709235 C 55.364872 173.320747 103.358806 232.831791 77.60636 238.847817 C 37.241452 248.277459 63.567147 122.956732 22.234756 126.099572 C 4.633106 127.437969 22.783645 171.118428 6.185427 177.127466 C -2.384665 180.230089 -8.793252 166.057606 -17.04699 162.191268 C -23.842114 159.008195 -31.755919 152.617594 -38.737515 155.367685 C -90.899257 175.914489 -69.272441 320.805721 -122.490563 303.174781 C -159.158933 291.026705 -74.531351 206.348669 -107.977507 187.022526 C -141.33362 167.748413 -163.556075 265.998029 -201.111018 257.410363 C -216.391396 253.916208 -220.479138 230.651059 -222.792133 215.147861 C -225.823996 194.826344 -220.831375 172.312905 -211.780358 153.867436 C -196.231041 122.178795 -126.629038 107.117472 -140.08777 74.485988 C -147.173238 57.306854 -180.086028 80.500855 -196.31809 71.45394 C -205.410963 66.386041 -206.010072 51.813221 -214.330396 45.557331 C -235.175342 29.88442 -290.634999 46.261643 -289.188792 20.22205 C -286.564549 -27.028588 -164.39325 34.35749 -149.097657 -10.425924 C -145.498394 -20.964075 -163.681107 -27.703668 -170.763688 -36.296943 C -180.678101 -48.326071 -192.697747 -59.500091 -200.520418 -72.983464 C -208.046579 -85.955764 -212.677134 -100.980497 -216.952447 -115.355662 C -221.753606 -131.498916 -225.682833 -148.546484 -227.502184 -165.290012 C -229.45732 -183.283168 -244.069916 -211.894088 -227.955221 -220.133798 C -180.036596 -244.63538 -138.950189 -90.431022 -96.534871 -123.559001 C -54.215916 -156.611717 -181.912622 -225.907929 -158.26058 -274.115365 C -151.815275 -287.252143 -129.279609 -290.896252 -115.519095 -285.919792 C -78.006441 -272.353423 -76.107422 -213.429466 -46.538167 -186.65439 C -38.531758 -179.404556 -28.480713 -168.351725 -17.944181 -170.727475 C -3.998084 -173.872004 -6.897958 -208.417799 7.194026 -206.009961 C 28.423555 -202.382561 5.484305 -151.81181 25.267321 -143.298103 C 34.002526 -139.53887 43.652701 -150.338175 50.862655 -156.539159 C 84.00325 -185.042017 88.614553 -281.319543 128.643111 -263.757466 C 160.784965 -249.65559 79.569853 -180.646379 107.585022 -159.501355 C 127.565449 -144.420717 158.503204 -213.179323 174.974505 -194.328876 C 205.580598 -159.301979 63.611578 -114.089971 94.051921 -78.918933 C 134.683147 -31.97326 199.946237 -161.719709 262.001097 -163.716457 C 281.359575 -164.339357 312.003317 -159.640712 315.986336 -140.686181 C 322.359261 -110.358479 261.605221 -101.566949 251.746046 -72.187018 C 247.917295 -60.7775 249.195361 -46.112787 255.596956 -35.92181 C 267.566161 -16.867512 317.023653 -22.232737 313.554712 -0.000001 C 307.642091 37.894489 205.627745 -9.827153 200.812263 28.222323 Z " fill="#fef3c7" stroke="undefined" stroke-width="1" stroke-opacity="1" fill-opacity="1" visibility="visible" stroke-linecap="butt" stroke-linejoin="miter" stroke-miterlimit="4"></path></g></svg>