<svg xmlns="http://www.w3.org/2000/svg" version="1.1" xmlns:xlink="http://www.w3.org/1999/xlink" viewBox="0 0 700 700" style="overflow: hidden; display: block;" width="700" height="700"><defs></defs><g id="two-0" transform="matrix(1 0 0 1 0 0)" opacity="1"><path transform="matrix(1 0 0 1 350 350)" id="two-378" d="M 201.702849 35.565654 C 181.152311 45.100602 154.021283 37.648106 134.359993 48.903038 C 127.100239 53.058819 117.399985 59.487119 117.521916 67.85131 C 118.492827 134.453684 295.110665 160.88465 255.941254 214.760212 C 228.964971 251.864739 176.169083 155.555393 130.295453 155.280074 C 118.629028 155.210056 107.260935 162.71972 98.162379 170.022229 C 87.717852 178.405016 84.089079 193.973324 73.657434 202.372138 C 63.714041 210.377846 48.141092 210.189786 38.547008 218.610948 C 20.641623 234.327318 23.427522 283.985575 0 279.654494 C -43.336802 271.642754 17.315217 155.552634 -26.220687 148.704902 C -79.681249 140.296128 -53.595982 304.453725 -106.227542 291.85777 C -138.636122 284.101644 -105.887874 223.993928 -110.248935 190.956756 C -112.326095 175.221249 -107.103176 151.946411 -120.869847 144.047074 C -145.342052 130.004884 -178.293314 184.502379 -202.390302 169.825627 C -216.17122 161.432084 -200.246675 133.944588 -210.682019 121.63732 C -224.954563 104.804524 -268.779954 121.151945 -273.848407 99.672668 C -280.416329 71.838883 -206.547392 65.396479 -213.353522 37.619982 C -222.817038 -1.001574 -330.92816 39.643025 -327.827629 0 C -323.384289 -56.812022 -169.691891 27.889667 -157.388835 -27.751898 C -149.320043 -64.243663 -259.303768 -54.927748 -251.074602 -91.383682 C -245.687811 -115.247643 -196.548666 -86.93575 -177.80178 -102.653906 C -168.131225 -110.762094 -171.378235 -127.698967 -165.484872 -138.858295 C -159.549261 -150.097623 -145.542622 -157.356797 -142.36454 -169.663452 C -133.918803 -202.368325 -178.543585 -245.460368 -156.485944 -271.041605 C -144.064007 -285.447883 -115.599933 -280.582242 -98.845284 -271.575185 C -61.429879 -251.461204 -71.232893 -166.234747 -28.838508 -163.551302 C -14.120679 -162.619704 -9.331994 -186.270485 -0.000001 -197.689604 C 15.109166 -216.177975 22.324396 -262.323321 44.86695 -254.453122 C 86.068674 -240.068515 6.356256 -143.447027 44.480638 -122.209549 C 58.315142 -114.502933 72.282466 -138.440253 85.209689 -147.587512 C 125.679465 -176.22379 155.282447 -256.334544 202.554564 -241.395131 C 221.360882 -235.451767 223.595062 -203.27862 219.313468 -184.025851 C 208.170717 -133.920966 125.278782 -117.858604 116.53283 -67.280261 C 115.218372 -59.678676 118.785531 -49.864636 125.191192 -45.565868 C 163.722805 -19.70773 239.878864 -85.355356 265.803253 -46.868286 C 275.16283 -32.973159 256.376134 -13.377606 246.290705 -0.000001 C 234.960258 15.029034 218.776189 27.64404 201.702849 35.565654 Z " fill="#fef3c7" stroke="undefined" stroke-width="1" stroke-opacity="1" fill-opacity="1" visibility="visible" stroke-linecap="butt" stroke-linejoin="miter" stroke-miterlimit="4"></path></g></svg>